<?xml version="1.0" encoding="iso-8859-1"?>
<!-- Generator: Adobe Illustrator 18.1.1, SVG Export Plug-In . SVG Version: 6.00 Build 0)  -->
<svg version="1.1" id="Capa_1" xmlns="http://www.w3.org/2000/svg" xmlns:xlink="http://www.w3.org/1999/xlink" x="0px" y="0px"
	 viewBox="0 0 309.982 309.982" style="enable-background:new 0 0 309.982 309.982;" xml:space="preserve">
<g>
	<path style="fill:#20b046" d="M231.938,84.501l37.573-4.128c11.857-1.947,12.526-7.386,1.496-12.151L124.837,4.166
		c-11.03-4.765-25.95-5.559-33.32-1.779L78.17,9.23l-43.29,6.815l168.073,90.163L231.938,84.501z"/>
	<path style="fill:#20b046;" d="M202.045,115.656L28.549,20.864v162.008c0,12.015,7.985,27.331,17.84,34.212l127.557,89.038
		c9.856,6.88,23.198,4.319,29.801-5.716l24.993-37.954l23.97,12.94c10.574,5.711,19.613,0.604,20.19-11.395l8.534-177.433
		l-45.857,6.848L202.045,115.656z M169.78,132.37l-2.589,2.823c-1.817,11.884-8.958,46.39-31.764,58.791
		c-4.329,2.355-10.198,4.406-17.492,4.406c-6.304,0-13.679-1.528-22.055-5.716c-43.964-21.985-42.767-74.493-35.996-99.192
		l0.718-2.622c0,0,3.002-3.182,6.712-7.109c3.709-3.922,10.253-3.758,14.62,0.364c4.368,4.123,5.765,9.736,3.127,12.532
		l-4.781,5.069c-2.377,10.96-9.252,54.206,25.335,71.497c11.71,5.858,17.519,2.692,19.423,1.664
		c13.832-7.522,19.967-36.251,21.027-45.721l0.397-3.525c0,0,2.214-2.41,4.939-5.39c2.725-2.975,8.528-2.094,12.956,1.964
		C168.779,126.251,171.21,130.809,169.78,132.37z"/>
</g>
</svg>
